<mxfile host="app.diagrams.net" modified="2023-12-06T21:07:16.199Z" agent="5.0 (Windows NT 10.0; Win64; x64) AppleWebKit/537.36 (KHTML, like Gecko) Chrome/119.0.0.0 Safari/537.36" etag="Kw_ZfYnDV06YGAa7Yw0R" version="16.6.1" type="github">
  <diagram name="Page-1" id="822b0af5-4adb-64df-f703-e8dfc1f81529">
    <mxGraphModel dx="3042" dy="1627" grid="1" gridSize="10" guides="1" tooltips="1" connect="1" arrows="1" fold="1" page="1" pageScale="1" pageWidth="1100" pageHeight="850" background="none" math="0" shadow="0">
      <root>
        <mxCell id="0" />
        <mxCell id="1" parent="0" />
        <mxCell id="oog65j6L7B87XHzVz9v1-75" style="edgeStyle=orthogonalEdgeStyle;rounded=0;orthogonalLoop=1;jettySize=auto;html=1;entryX=0.25;entryY=1;entryDx=0;entryDy=0;fontColor=#FFFFFF;strokeColor=default;" edge="1" parent="1" source="oog65j6L7B87XHzVz9v1-12" target="oog65j6L7B87XHzVz9v1-2">
          <mxGeometry relative="1" as="geometry" />
        </mxCell>
        <mxCell id="oog65j6L7B87XHzVz9v1-79" value="&lt;span style=&quot;background-color: rgb(0 , 0 , 0)&quot;&gt;Verify access&lt;/span&gt;" style="edgeLabel;html=1;align=center;verticalAlign=middle;resizable=0;points=[];fontColor=#FFFFFF;labelBorderColor=none;" vertex="1" connectable="0" parent="oog65j6L7B87XHzVz9v1-75">
          <mxGeometry x="0.2972" y="1" relative="1" as="geometry">
            <mxPoint as="offset" />
          </mxGeometry>
        </mxCell>
        <mxCell id="oog65j6L7B87XHzVz9v1-72" style="edgeStyle=orthogonalEdgeStyle;rounded=0;orthogonalLoop=1;jettySize=auto;html=1;fontColor=#FFFFFF;strokeColor=default;entryX=0.5;entryY=0;entryDx=0;entryDy=0;" edge="1" parent="1" source="oog65j6L7B87XHzVz9v1-6" target="oog65j6L7B87XHzVz9v1-2">
          <mxGeometry relative="1" as="geometry" />
        </mxCell>
        <mxCell id="oog65j6L7B87XHzVz9v1-94" value="Verify access" style="edgeLabel;html=1;align=center;verticalAlign=middle;resizable=0;points=[];fontColor=#FFFFFF;labelBackgroundColor=#000000;" vertex="1" connectable="0" parent="oog65j6L7B87XHzVz9v1-72">
          <mxGeometry x="-0.1253" y="-1" relative="1" as="geometry">
            <mxPoint as="offset" />
          </mxGeometry>
        </mxCell>
        <mxCell id="oog65j6L7B87XHzVz9v1-70" style="edgeStyle=orthogonalEdgeStyle;rounded=0;orthogonalLoop=1;jettySize=auto;html=1;entryX=0.5;entryY=1;entryDx=0;entryDy=0;fontColor=#FFFFFF;strokeColor=default;exitX=0.5;exitY=0;exitDx=0;exitDy=0;" edge="1" parent="1" source="oog65j6L7B87XHzVz9v1-25" target="oog65j6L7B87XHzVz9v1-68">
          <mxGeometry relative="1" as="geometry" />
        </mxCell>
        <mxCell id="oog65j6L7B87XHzVz9v1-4" value="" style="group" vertex="1" connectable="0" parent="1">
          <mxGeometry x="450" y="20" width="280" height="110" as="geometry" />
        </mxCell>
        <mxCell id="oog65j6L7B87XHzVz9v1-2" value="" style="rounded=0;whiteSpace=wrap;html=1;fillColor=#dae8fc;strokeColor=#6c8ebf;" vertex="1" parent="oog65j6L7B87XHzVz9v1-4">
          <mxGeometry width="280" height="110" as="geometry" />
        </mxCell>
        <mxCell id="oog65j6L7B87XHzVz9v1-3" value="Auth Service" style="rounded=0;whiteSpace=wrap;html=1;fillColor=#d5e8d4;strokeColor=#82b366;" vertex="1" parent="oog65j6L7B87XHzVz9v1-4">
          <mxGeometry x="80" y="25" width="120" height="60" as="geometry" />
        </mxCell>
        <mxCell id="oog65j6L7B87XHzVz9v1-11" value="" style="group" vertex="1" connectable="0" parent="1">
          <mxGeometry x="380" y="650" width="560" height="160" as="geometry" />
        </mxCell>
        <mxCell id="oog65j6L7B87XHzVz9v1-12" value="" style="rounded=0;whiteSpace=wrap;html=1;fillColor=#dae8fc;strokeColor=#6c8ebf;" vertex="1" parent="oog65j6L7B87XHzVz9v1-11">
          <mxGeometry width="560" height="160" as="geometry" />
        </mxCell>
        <mxCell id="oog65j6L7B87XHzVz9v1-13" value="Storage Service" style="rounded=0;whiteSpace=wrap;html=1;fillColor=#d5e8d4;strokeColor=#82b366;" vertex="1" parent="oog65j6L7B87XHzVz9v1-11">
          <mxGeometry x="215" y="90" width="130" height="53.64" as="geometry" />
        </mxCell>
        <mxCell id="oog65j6L7B87XHzVz9v1-23" value="Analysis&amp;nbsp;&lt;br&gt;Results" style="rounded=0;whiteSpace=wrap;html=1;" vertex="1" parent="oog65j6L7B87XHzVz9v1-11">
          <mxGeometry x="215" y="10" width="135" height="60" as="geometry" />
        </mxCell>
        <mxCell id="oog65j6L7B87XHzVz9v1-89" value="Analysis&amp;nbsp;&lt;br&gt;Files" style="rounded=0;whiteSpace=wrap;html=1;" vertex="1" parent="oog65j6L7B87XHzVz9v1-11">
          <mxGeometry x="389.9988888888888" y="83.63999999999999" width="141.33333333333334" height="60" as="geometry" />
        </mxCell>
        <mxCell id="oog65j6L7B87XHzVz9v1-5" value="" style="group" vertex="1" connectable="0" parent="1">
          <mxGeometry x="1200" y="-170" width="430" height="230" as="geometry" />
        </mxCell>
        <mxCell id="oog65j6L7B87XHzVz9v1-6" value="" style="rounded=0;whiteSpace=wrap;html=1;fillColor=#dae8fc;strokeColor=#6c8ebf;" vertex="1" parent="oog65j6L7B87XHzVz9v1-5">
          <mxGeometry width="430" height="230" as="geometry" />
        </mxCell>
        <mxCell id="oog65j6L7B87XHzVz9v1-30" value="Public Key" style="rounded=0;whiteSpace=wrap;html=1;" vertex="1" parent="oog65j6L7B87XHzVz9v1-5">
          <mxGeometry x="19.99555555555571" y="140" width="141.33333333333334" height="60" as="geometry" />
        </mxCell>
        <mxCell id="oog65j6L7B87XHzVz9v1-7" value="Key Service" style="rounded=0;whiteSpace=wrap;html=1;fillColor=#d5e8d4;strokeColor=#82b366;" vertex="1" parent="oog65j6L7B87XHzVz9v1-5">
          <mxGeometry x="227.04000000000002" y="70" width="184.29" height="57.73" as="geometry" />
        </mxCell>
        <mxCell id="oog65j6L7B87XHzVz9v1-33" value="Analysis Key" style="rounded=0;whiteSpace=wrap;html=1;" vertex="1" parent="oog65j6L7B87XHzVz9v1-5">
          <mxGeometry x="10" y="30" width="141.33" height="60" as="geometry" />
        </mxCell>
        <mxCell id="oog65j6L7B87XHzVz9v1-14" value="" style="group" vertex="1" connectable="0" parent="1">
          <mxGeometry x="870" y="130" width="280" height="110" as="geometry" />
        </mxCell>
        <mxCell id="oog65j6L7B87XHzVz9v1-15" value="" style="rounded=0;whiteSpace=wrap;html=1;fillColor=#dae8fc;strokeColor=#6c8ebf;" vertex="1" parent="oog65j6L7B87XHzVz9v1-14">
          <mxGeometry width="280" height="110" as="geometry" />
        </mxCell>
        <mxCell id="oog65j6L7B87XHzVz9v1-16" value="Message Broker&amp;nbsp;&lt;br&gt;Service" style="rounded=0;whiteSpace=wrap;html=1;fillColor=#d5e8d4;strokeColor=#82b366;" vertex="1" parent="oog65j6L7B87XHzVz9v1-14">
          <mxGeometry x="80" y="25" width="120" height="60" as="geometry" />
        </mxCell>
        <mxCell id="oog65j6L7B87XHzVz9v1-17" value="" style="group" vertex="1" connectable="0" parent="1">
          <mxGeometry x="-450" y="370" width="530" height="200" as="geometry" />
        </mxCell>
        <mxCell id="oog65j6L7B87XHzVz9v1-18" value="" style="rounded=0;whiteSpace=wrap;html=1;fillColor=#dae8fc;strokeColor=#6c8ebf;" vertex="1" parent="oog65j6L7B87XHzVz9v1-17">
          <mxGeometry width="530" height="200" as="geometry" />
        </mxCell>
        <mxCell id="oog65j6L7B87XHzVz9v1-19" value="Aggregator Service" style="rounded=0;whiteSpace=wrap;html=1;fillColor=#d5e8d4;strokeColor=#82b366;" vertex="1" parent="oog65j6L7B87XHzVz9v1-17">
          <mxGeometry x="260" y="110.01" width="206.44" height="74.55" as="geometry" />
        </mxCell>
        <mxCell id="oog65j6L7B87XHzVz9v1-21" value="Analysis Key" style="rounded=0;whiteSpace=wrap;html=1;" vertex="1" parent="oog65j6L7B87XHzVz9v1-17">
          <mxGeometry x="23.559111111111143" y="20" width="141.33333333333334" height="60" as="geometry" />
        </mxCell>
        <mxCell id="oog65j6L7B87XHzVz9v1-22" value="Public Key" style="rounded=0;whiteSpace=wrap;html=1;" vertex="1" parent="oog65j6L7B87XHzVz9v1-17">
          <mxGeometry x="194.3355555555556" y="20" width="141.33333333333334" height="60" as="geometry" />
        </mxCell>
        <mxCell id="oog65j6L7B87XHzVz9v1-24" value="Core&amp;nbsp;&lt;br&gt;Resources" style="rounded=0;whiteSpace=wrap;html=1;" vertex="1" parent="oog65j6L7B87XHzVz9v1-17">
          <mxGeometry x="376.8855555555556" y="20" width="141.33333333333334" height="60" as="geometry" />
        </mxCell>
        <mxCell id="oog65j6L7B87XHzVz9v1-41" value="Analysis&amp;nbsp;&lt;br&gt;Results" style="rounded=0;whiteSpace=wrap;html=1;" vertex="1" parent="oog65j6L7B87XHzVz9v1-17">
          <mxGeometry x="23.558888888888788" y="117.28000000000002" width="141.33333333333334" height="60" as="geometry" />
        </mxCell>
        <mxCell id="oog65j6L7B87XHzVz9v1-31" style="edgeStyle=orthogonalEdgeStyle;rounded=0;orthogonalLoop=1;jettySize=auto;html=1;exitX=0.5;exitY=0;exitDx=0;exitDy=0;entryX=0;entryY=0.5;entryDx=0;entryDy=0;" edge="1" parent="1" source="oog65j6L7B87XHzVz9v1-22" target="oog65j6L7B87XHzVz9v1-30">
          <mxGeometry relative="1" as="geometry" />
        </mxCell>
        <mxCell id="oog65j6L7B87XHzVz9v1-32" value="Access" style="edgeLabel;html=1;align=center;verticalAlign=middle;resizable=0;points=[];labelBackgroundColor=#000000;fontColor=#FFFFFF;labelBorderColor=default;" vertex="1" connectable="0" parent="oog65j6L7B87XHzVz9v1-31">
          <mxGeometry x="-0.4647" y="-1" relative="1" as="geometry">
            <mxPoint x="1" as="offset" />
          </mxGeometry>
        </mxCell>
        <mxCell id="oog65j6L7B87XHzVz9v1-34" value="" style="group" vertex="1" connectable="0" parent="1">
          <mxGeometry x="1200" y="290" width="430" height="310" as="geometry" />
        </mxCell>
        <mxCell id="oog65j6L7B87XHzVz9v1-9" value="" style="rounded=0;whiteSpace=wrap;html=1;fillColor=#dae8fc;strokeColor=#6c8ebf;" vertex="1" parent="oog65j6L7B87XHzVz9v1-34">
          <mxGeometry width="430" height="310" as="geometry" />
        </mxCell>
        <mxCell id="oog65j6L7B87XHzVz9v1-25" value="Root Service" style="rounded=0;whiteSpace=wrap;html=1;fillColor=#d5e8d4;strokeColor=#82b366;" vertex="1" parent="oog65j6L7B87XHzVz9v1-34">
          <mxGeometry x="219.9955555555557" y="77.72000000000003" width="190.12866666666667" height="74.55" as="geometry" />
        </mxCell>
        <mxCell id="oog65j6L7B87XHzVz9v1-27" value="Public Key" style="rounded=0;whiteSpace=wrap;html=1;" vertex="1" parent="oog65j6L7B87XHzVz9v1-34">
          <mxGeometry x="19.99555555555571" y="10" width="141.33333333333334" height="60" as="geometry" />
        </mxCell>
        <mxCell id="oog65j6L7B87XHzVz9v1-28" value="Core&amp;nbsp;&lt;br&gt;Resources" style="rounded=0;whiteSpace=wrap;html=1;" vertex="1" parent="oog65j6L7B87XHzVz9v1-34">
          <mxGeometry x="19.995555555555484" y="99.26999999999998" width="141.33333333333334" height="60" as="geometry" />
        </mxCell>
        <mxCell id="oog65j6L7B87XHzVz9v1-29" value="Analysis&amp;nbsp;&lt;br&gt;Results" style="rounded=0;whiteSpace=wrap;html=1;" vertex="1" parent="oog65j6L7B87XHzVz9v1-34">
          <mxGeometry x="29.998888888888814" y="240" width="141.33333333333334" height="60" as="geometry" />
        </mxCell>
        <mxCell id="oog65j6L7B87XHzVz9v1-71" value="Analysis&amp;nbsp;&lt;br&gt;Files" style="rounded=0;whiteSpace=wrap;html=1;" vertex="1" parent="oog65j6L7B87XHzVz9v1-34">
          <mxGeometry x="229.9988888888888" y="240" width="141.33333333333334" height="60" as="geometry" />
        </mxCell>
        <mxCell id="oog65j6L7B87XHzVz9v1-35" style="edgeStyle=orthogonalEdgeStyle;rounded=0;orthogonalLoop=1;jettySize=auto;html=1;fontColor=#FFFFFF;" edge="1" parent="1" source="oog65j6L7B87XHzVz9v1-24" target="oog65j6L7B87XHzVz9v1-28">
          <mxGeometry relative="1" as="geometry" />
        </mxCell>
        <mxCell id="oog65j6L7B87XHzVz9v1-36" value="&lt;span style=&quot;&quot;&gt;Verify&lt;/span&gt;" style="edgeLabel;html=1;align=center;verticalAlign=middle;resizable=0;points=[];fontColor=#FFFFFF;labelBorderColor=default;labelBackgroundColor=#000000;" vertex="1" connectable="0" parent="oog65j6L7B87XHzVz9v1-35">
          <mxGeometry x="-0.2605" y="1" relative="1" as="geometry">
            <mxPoint x="-1" as="offset" />
          </mxGeometry>
        </mxCell>
        <mxCell id="oog65j6L7B87XHzVz9v1-37" style="edgeStyle=orthogonalEdgeStyle;rounded=0;orthogonalLoop=1;jettySize=auto;html=1;entryX=0.5;entryY=1;entryDx=0;entryDy=0;fontColor=#FFFFFF;exitX=1;exitY=0.5;exitDx=0;exitDy=0;" edge="1" parent="1" source="oog65j6L7B87XHzVz9v1-23" target="oog65j6L7B87XHzVz9v1-29">
          <mxGeometry relative="1" as="geometry" />
        </mxCell>
        <mxCell id="oog65j6L7B87XHzVz9v1-38" value="Acces" style="edgeLabel;html=1;align=center;verticalAlign=middle;resizable=0;points=[];fontColor=#FFFFFF;labelBackgroundColor=#000000;" vertex="1" connectable="0" parent="oog65j6L7B87XHzVz9v1-37">
          <mxGeometry x="-0.0686" y="4" relative="1" as="geometry">
            <mxPoint x="-1" as="offset" />
          </mxGeometry>
        </mxCell>
        <mxCell id="oog65j6L7B87XHzVz9v1-42" style="edgeStyle=orthogonalEdgeStyle;rounded=0;orthogonalLoop=1;jettySize=auto;html=1;entryX=0;entryY=0.5;entryDx=0;entryDy=0;fontColor=#FFFFFF;exitX=0.5;exitY=1;exitDx=0;exitDy=0;" edge="1" parent="1" source="oog65j6L7B87XHzVz9v1-41" target="oog65j6L7B87XHzVz9v1-23">
          <mxGeometry relative="1" as="geometry" />
        </mxCell>
        <mxCell id="oog65j6L7B87XHzVz9v1-43" value="&lt;span style=&quot;background-color: rgb(0 , 0 , 0)&quot;&gt;Store and Access&lt;/span&gt;" style="edgeLabel;html=1;align=center;verticalAlign=middle;resizable=0;points=[];fontColor=#FFFFFF;" vertex="1" connectable="0" parent="oog65j6L7B87XHzVz9v1-42">
          <mxGeometry x="-0.3199" y="5" relative="1" as="geometry">
            <mxPoint as="offset" />
          </mxGeometry>
        </mxCell>
        <mxCell id="oog65j6L7B87XHzVz9v1-45" style="edgeStyle=orthogonalEdgeStyle;rounded=0;orthogonalLoop=1;jettySize=auto;html=1;fontColor=#FFFFFF;strokeColor=default;entryX=0;entryY=0.5;entryDx=0;entryDy=0;" edge="1" parent="1" source="oog65j6L7B87XHzVz9v1-19" target="oog65j6L7B87XHzVz9v1-15">
          <mxGeometry relative="1" as="geometry" />
        </mxCell>
        <mxCell id="oog65j6L7B87XHzVz9v1-59" value="&lt;span style=&quot;&quot;&gt;Receive and transmit events&lt;/span&gt;" style="edgeLabel;html=1;align=center;verticalAlign=middle;resizable=0;points=[];fontColor=#FFFFFF;labelBorderColor=default;labelBackgroundColor=#000000;" vertex="1" connectable="0" parent="oog65j6L7B87XHzVz9v1-45">
          <mxGeometry x="0.1051" y="-4" relative="1" as="geometry">
            <mxPoint x="1" as="offset" />
          </mxGeometry>
        </mxCell>
        <mxCell id="oog65j6L7B87XHzVz9v1-60" style="edgeStyle=orthogonalEdgeStyle;rounded=0;orthogonalLoop=1;jettySize=auto;html=1;exitX=0.75;exitY=1;exitDx=0;exitDy=0;fontColor=#FFFFFF;strokeColor=default;entryX=0;entryY=0.25;entryDx=0;entryDy=0;" edge="1" parent="1" source="oog65j6L7B87XHzVz9v1-15" target="oog65j6L7B87XHzVz9v1-9">
          <mxGeometry relative="1" as="geometry">
            <mxPoint x="829" y="475" as="sourcePoint" />
            <mxPoint x="1265" y="300" as="targetPoint" />
          </mxGeometry>
        </mxCell>
        <mxCell id="oog65j6L7B87XHzVz9v1-87" value="Text" style="edgeLabel;html=1;align=center;verticalAlign=middle;resizable=0;points=[];fontColor=#FFFFFF;" vertex="1" connectable="0" parent="oog65j6L7B87XHzVz9v1-60">
          <mxGeometry x="-0.2983" y="-6" relative="1" as="geometry">
            <mxPoint as="offset" />
          </mxGeometry>
        </mxCell>
        <mxCell id="oog65j6L7B87XHzVz9v1-88" value="Receive and transmit events" style="edgeLabel;html=1;align=center;verticalAlign=middle;resizable=0;points=[];fontColor=#FFFFFF;labelBackgroundColor=#000000;" vertex="1" connectable="0" parent="oog65j6L7B87XHzVz9v1-60">
          <mxGeometry x="-0.2645" y="-1" relative="1" as="geometry">
            <mxPoint as="offset" />
          </mxGeometry>
        </mxCell>
        <mxCell id="oog65j6L7B87XHzVz9v1-63" style="edgeStyle=orthogonalEdgeStyle;rounded=0;orthogonalLoop=1;jettySize=auto;html=1;entryX=0.5;entryY=0;entryDx=0;entryDy=0;fontColor=#FFFFFF;strokeColor=default;exitX=0.5;exitY=0;exitDx=0;exitDy=0;" edge="1" parent="1" source="oog65j6L7B87XHzVz9v1-21" target="oog65j6L7B87XHzVz9v1-33">
          <mxGeometry relative="1" as="geometry" />
        </mxCell>
        <mxCell id="oog65j6L7B87XHzVz9v1-64" value="Access" style="edgeLabel;html=1;align=center;verticalAlign=middle;resizable=0;points=[];fontColor=#FFFFFF;labelBackgroundColor=#000000;labelBorderColor=default;" vertex="1" connectable="0" parent="oog65j6L7B87XHzVz9v1-63">
          <mxGeometry x="0.0601" y="-1" relative="1" as="geometry">
            <mxPoint as="offset" />
          </mxGeometry>
        </mxCell>
        <mxCell id="oog65j6L7B87XHzVz9v1-65" style="edgeStyle=orthogonalEdgeStyle;rounded=0;orthogonalLoop=1;jettySize=auto;html=1;fontColor=#FFFFFF;strokeColor=default;" edge="1" parent="1" source="oog65j6L7B87XHzVz9v1-27" target="oog65j6L7B87XHzVz9v1-30">
          <mxGeometry relative="1" as="geometry" />
        </mxCell>
        <mxCell id="oog65j6L7B87XHzVz9v1-66" value="Store and access" style="edgeLabel;html=1;align=center;verticalAlign=middle;resizable=0;points=[];fontColor=#FFFFFF;labelBackgroundColor=#000000;labelBorderColor=default;" vertex="1" connectable="0" parent="oog65j6L7B87XHzVz9v1-65">
          <mxGeometry x="0.3448" relative="1" as="geometry">
            <mxPoint y="1" as="offset" />
          </mxGeometry>
        </mxCell>
        <mxCell id="oog65j6L7B87XHzVz9v1-67" value="" style="group" vertex="1" connectable="0" parent="1">
          <mxGeometry x="2220" y="80" width="280" height="110" as="geometry" />
        </mxCell>
        <mxCell id="oog65j6L7B87XHzVz9v1-68" value="" style="rounded=0;whiteSpace=wrap;html=1;fillColor=#dae8fc;strokeColor=#6c8ebf;" vertex="1" parent="oog65j6L7B87XHzVz9v1-67">
          <mxGeometry width="280" height="110" as="geometry" />
        </mxCell>
        <mxCell id="oog65j6L7B87XHzVz9v1-69" value="Analyse Service" style="rounded=0;whiteSpace=wrap;html=1;fillColor=#d5e8d4;strokeColor=#82b366;" vertex="1" parent="oog65j6L7B87XHzVz9v1-67">
          <mxGeometry x="80" y="25" width="120" height="60" as="geometry" />
        </mxCell>
        <mxCell id="oog65j6L7B87XHzVz9v1-73" style="edgeStyle=orthogonalEdgeStyle;rounded=0;orthogonalLoop=1;jettySize=auto;html=1;entryX=0.75;entryY=1;entryDx=0;entryDy=0;fontColor=#FFFFFF;strokeColor=default;exitX=0.5;exitY=0;exitDx=0;exitDy=0;" edge="1" parent="1" source="oog65j6L7B87XHzVz9v1-15" target="oog65j6L7B87XHzVz9v1-2">
          <mxGeometry relative="1" as="geometry" />
        </mxCell>
        <mxCell id="oog65j6L7B87XHzVz9v1-78" value="Verify access" style="edgeLabel;html=1;align=center;verticalAlign=middle;resizable=0;points=[];fontColor=#FFFFFF;labelBackgroundColor=#000000;" vertex="1" connectable="0" parent="oog65j6L7B87XHzVz9v1-73">
          <mxGeometry x="-0.0353" y="1" relative="1" as="geometry">
            <mxPoint as="offset" />
          </mxGeometry>
        </mxCell>
        <mxCell id="oog65j6L7B87XHzVz9v1-74" style="edgeStyle=orthogonalEdgeStyle;rounded=0;orthogonalLoop=1;jettySize=auto;html=1;fontColor=#FFFFFF;strokeColor=default;" edge="1" parent="1" source="oog65j6L7B87XHzVz9v1-9" target="oog65j6L7B87XHzVz9v1-2">
          <mxGeometry relative="1" as="geometry" />
        </mxCell>
        <mxCell id="oog65j6L7B87XHzVz9v1-76" style="edgeStyle=orthogonalEdgeStyle;rounded=0;orthogonalLoop=1;jettySize=auto;html=1;entryX=0;entryY=0.5;entryDx=0;entryDy=0;fontColor=#FFFFFF;strokeColor=default;" edge="1" parent="1" source="oog65j6L7B87XHzVz9v1-18" target="oog65j6L7B87XHzVz9v1-2">
          <mxGeometry relative="1" as="geometry" />
        </mxCell>
        <mxCell id="oog65j6L7B87XHzVz9v1-77" value="Verify access" style="edgeLabel;html=1;align=center;verticalAlign=middle;resizable=0;points=[];fontColor=#FFFFFF;labelBackgroundColor=#000000;" vertex="1" connectable="0" parent="oog65j6L7B87XHzVz9v1-76">
          <mxGeometry x="0.0735" y="-2" relative="1" as="geometry">
            <mxPoint as="offset" />
          </mxGeometry>
        </mxCell>
        <mxCell id="oog65j6L7B87XHzVz9v1-82" value="" style="group" vertex="1" connectable="0" parent="1">
          <mxGeometry x="1840" y="315" width="280" height="110" as="geometry" />
        </mxCell>
        <mxCell id="oog65j6L7B87XHzVz9v1-83" value="" style="rounded=0;whiteSpace=wrap;html=1;fillColor=#dae8fc;strokeColor=#6c8ebf;" vertex="1" parent="oog65j6L7B87XHzVz9v1-82">
          <mxGeometry width="280" height="110" as="geometry" />
        </mxCell>
        <mxCell id="oog65j6L7B87XHzVz9v1-84" value="UI" style="rounded=0;whiteSpace=wrap;html=1;fillColor=#d5e8d4;strokeColor=#82b366;" vertex="1" parent="oog65j6L7B87XHzVz9v1-82">
          <mxGeometry x="80" y="25" width="120" height="60" as="geometry" />
        </mxCell>
        <mxCell id="oog65j6L7B87XHzVz9v1-86" style="edgeStyle=orthogonalEdgeStyle;rounded=0;orthogonalLoop=1;jettySize=auto;html=1;fontColor=#FFFFFF;strokeColor=default;" edge="1" parent="1" source="oog65j6L7B87XHzVz9v1-83" target="oog65j6L7B87XHzVz9v1-9">
          <mxGeometry relative="1" as="geometry" />
        </mxCell>
        <mxCell id="oog65j6L7B87XHzVz9v1-90" style="edgeStyle=orthogonalEdgeStyle;rounded=0;orthogonalLoop=1;jettySize=auto;html=1;entryX=1;entryY=0.5;entryDx=0;entryDy=0;fontColor=#FFFFFF;strokeColor=default;exitX=0.5;exitY=1;exitDx=0;exitDy=0;" edge="1" parent="1" source="oog65j6L7B87XHzVz9v1-71" target="oog65j6L7B87XHzVz9v1-89">
          <mxGeometry relative="1" as="geometry" />
        </mxCell>
        <mxCell id="oog65j6L7B87XHzVz9v1-93" value="Store and access" style="edgeLabel;html=1;align=center;verticalAlign=middle;resizable=0;points=[];fontColor=#FFFFFF;labelBackgroundColor=#000000;" vertex="1" connectable="0" parent="oog65j6L7B87XHzVz9v1-90">
          <mxGeometry x="0.1554" relative="1" as="geometry">
            <mxPoint as="offset" />
          </mxGeometry>
        </mxCell>
        <mxCell id="oog65j6L7B87XHzVz9v1-95" style="edgeStyle=orthogonalEdgeStyle;rounded=0;orthogonalLoop=1;jettySize=auto;html=1;fontColor=#FFFFFF;strokeColor=default;exitX=0.75;exitY=0;exitDx=0;exitDy=0;entryX=0.25;entryY=1;entryDx=0;entryDy=0;" edge="1" parent="1" source="oog65j6L7B87XHzVz9v1-12" target="oog65j6L7B87XHzVz9v1-15">
          <mxGeometry relative="1" as="geometry" />
        </mxCell>
        <mxCell id="oog65j6L7B87XHzVz9v1-96" value="Transmit events&amp;nbsp;" style="edgeLabel;html=1;align=center;verticalAlign=middle;resizable=0;points=[];fontColor=#FFFFFF;labelBackgroundColor=#000000;" vertex="1" connectable="0" parent="oog65j6L7B87XHzVz9v1-95">
          <mxGeometry x="0.2064" y="-3" relative="1" as="geometry">
            <mxPoint as="offset" />
          </mxGeometry>
        </mxCell>
        <mxCell id="oog65j6L7B87XHzVz9v1-97" style="edgeStyle=orthogonalEdgeStyle;rounded=0;orthogonalLoop=1;jettySize=auto;html=1;entryX=1;entryY=0.5;entryDx=0;entryDy=0;fontColor=#FFFFFF;strokeColor=default;exitX=0.25;exitY=0;exitDx=0;exitDy=0;" edge="1" parent="1" source="oog65j6L7B87XHzVz9v1-83" target="oog65j6L7B87XHzVz9v1-15">
          <mxGeometry relative="1" as="geometry" />
        </mxCell>
        <mxCell id="oog65j6L7B87XHzVz9v1-98" value="&lt;span style=&quot;background-color: rgb(0 , 0 , 0)&quot;&gt;Receive Events&lt;/span&gt;" style="edgeLabel;html=1;align=center;verticalAlign=middle;resizable=0;points=[];fontColor=#FFFFFF;" vertex="1" connectable="0" parent="oog65j6L7B87XHzVz9v1-97">
          <mxGeometry x="-0.1073" y="3" relative="1" as="geometry">
            <mxPoint as="offset" />
          </mxGeometry>
        </mxCell>
        <mxCell id="oog65j6L7B87XHzVz9v1-100" value="" style="group" vertex="1" connectable="0" parent="1">
          <mxGeometry x="1800" y="-40" width="280" height="110" as="geometry" />
        </mxCell>
        <mxCell id="oog65j6L7B87XHzVz9v1-101" value="" style="rounded=0;whiteSpace=wrap;html=1;fillColor=#dae8fc;strokeColor=#6c8ebf;" vertex="1" parent="oog65j6L7B87XHzVz9v1-100">
          <mxGeometry width="280" height="110" as="geometry" />
        </mxCell>
        <mxCell id="oog65j6L7B87XHzVz9v1-102" value="Job Service" style="rounded=0;whiteSpace=wrap;html=1;fillColor=#d5e8d4;strokeColor=#82b366;" vertex="1" parent="oog65j6L7B87XHzVz9v1-100">
          <mxGeometry x="80" y="25" width="120" height="60" as="geometry" />
        </mxCell>
        <mxCell id="oog65j6L7B87XHzVz9v1-103" style="edgeStyle=orthogonalEdgeStyle;rounded=0;orthogonalLoop=1;jettySize=auto;html=1;fontColor=#FFFFFF;strokeColor=default;" edge="1" parent="1" source="oog65j6L7B87XHzVz9v1-101" target="oog65j6L7B87XHzVz9v1-68">
          <mxGeometry relative="1" as="geometry" />
        </mxCell>
        <mxCell id="oog65j6L7B87XHzVz9v1-104" style="edgeStyle=orthogonalEdgeStyle;rounded=0;orthogonalLoop=1;jettySize=auto;html=1;entryX=0;entryY=0.5;entryDx=0;entryDy=0;fontColor=#FFFFFF;strokeColor=default;exitX=0.5;exitY=0;exitDx=0;exitDy=0;" edge="1" parent="1" source="oog65j6L7B87XHzVz9v1-9" target="oog65j6L7B87XHzVz9v1-101">
          <mxGeometry relative="1" as="geometry" />
        </mxCell>
      </root>
    </mxGraphModel>
  </diagram>
</mxfile>
